<svg width="28" height="29" viewBox="0 0 28 29" fill="none" xmlns="http://www.w3.org/2000/svg">
    <path d="M9.66667 27.5V18.8333C9.66667 18.0672 9.97103 17.3324 10.5128 16.7906C11.0546 16.2488 11.7894 15.9444 12.5556 15.9444H15.4444C16.2106 15.9444 16.9454 16.2488 17.4872 16.7906C18.029 17.3324 18.3333 18.0672 18.3333 18.8333V27.5M3.88889 14.5H1L14 1.5L27 14.5H24.1111V24.6111C24.1111 25.3773 23.8067 26.1121 23.265 26.6539C22.7232 27.1956 21.9884 27.5 21.2222 27.5H6.77778C6.0116 27.5 5.2768 27.1956 4.73502 26.6539C4.19325 26.1121 3.88889 25.3773 3.88889 24.6111V14.5Z" stroke="white" stroke-width="1.5" stroke-linecap="round" stroke-linejoin="round"/>
</svg>
