<svg width="21" height="28" viewBox="0 0 21 28" fill="none" xmlns="http://www.w3.org/2000/svg">
    <path d="M4.10254 7.37607C4.10254 9.00818 4.75089 10.5734 5.90496 11.7275C7.05903 12.8816 8.62428 13.5299 10.2564 13.5299C11.8885 13.5299 13.4537 12.8816 14.6078 11.7275C15.7619 10.5734 16.4102 9.00818 16.4102 7.37607C16.4102 5.74397 15.7619 4.17872 14.6078 3.02465C13.4537 1.87058 11.8885 1.22223 10.2564 1.22223C8.62428 1.22223 7.05903 1.87058 5.90496 3.02465C4.75089 4.17872 4.10254 5.74397 4.10254 7.37607Z" stroke="white" stroke-width="1.5" stroke-linecap="round" stroke-linejoin="round"/>
    <path d="M19.7628 21.7351C19.7628 23.0674 18.8588 24.4018 17.1229 25.4434C15.402 26.4759 12.9761 27.1389 10.2564 27.1389C7.53674 27.1389 5.11086 26.4759 3.3899 25.4434C1.65402 24.4018 0.75 23.0674 0.75 21.7351C0.75 20.4027 1.65402 19.0683 3.3899 18.0267C5.11086 16.9942 7.53674 16.3312 10.2564 16.3312C12.9761 16.3312 15.402 16.9942 17.1229 18.0267C18.8588 19.0683 19.7628 20.4027 19.7628 21.7351Z" stroke="white" stroke-width="1.5"/>
</svg>
