<svg width="26" height="22" viewBox="0 0 26 22" fill="none" xmlns="http://www.w3.org/2000/svg">
    <path d="M20.5789 14.8947C21.4165 14.8947 22.2197 15.2274 22.8119 15.8197C23.4041 16.4119 23.7368 17.2151 23.7368 18.0526C23.7368 18.8902 23.4041 19.6934 22.8119 20.2856C22.2197 20.8778 21.4165 21.2105 20.5789 21.2105C19.7414 21.2105 18.9382 20.8778 18.346 20.2856C17.7538 19.6934 17.4211 18.8902 17.4211 18.0526C17.4211 17.2151 17.7538 16.4119 18.346 15.8197C18.9382 15.2274 19.7414 14.8947 20.5789 14.8947ZM20.5789 14.8947L25 6.05263H6.05263V19.9474C6.05287 20.2135 6.13715 20.4727 6.29343 20.6881C6.44972 20.9034 6.67002 21.064 6.92293 21.1467C7.17583 21.2295 7.44842 21.2303 7.70179 21.1489C7.95516 21.0676 8.17638 20.9084 8.33389 20.6939L13 14.2632V14.3326M20.5789 14.8947L11.6105 13.9512C10.6956 13.855 9.82436 13.5109 9.09066 12.956C8.35697 12.401 7.7887 11.6563 7.44716 10.8021L3.84337 1.79579C3.74992 1.56116 3.58829 1.35993 3.37934 1.21807C3.17039 1.07622 2.92371 1.00026 2.67116 1H1" stroke="#4B5563" stroke-opacity="0.6" stroke-width="1.5" stroke-linecap="round" stroke-linejoin="round"/>
</svg>
