<svg width="24" height="27" viewBox="0 0 24 27" fill="none" xmlns="http://www.w3.org/2000/svg">
    <path d="M7.66667 20.1667V21.5C7.66667 22.5609 8.08809 23.5783 8.83824 24.3284C9.58838 25.0786 10.6058 25.5 11.6667 25.5C12.7275 25.5 13.7449 25.0786 14.4951 24.3284C15.2452 23.5783 15.6667 22.5609 15.6667 21.5V20.1667M9 4.16667C9 3.45942 9.28095 2.78115 9.78105 2.28105C10.2811 1.78095 10.9594 1.5 11.6667 1.5C12.3739 1.5 13.0522 1.78095 13.5523 2.28105C14.0524 2.78115 14.3333 3.45942 14.3333 4.16667C15.8645 4.8907 17.1699 6.01777 18.1094 7.42707C19.0489 8.83636 19.5873 10.4748 19.6667 12.1667V16.1667C19.767 16.9956 20.0606 17.7894 20.5238 18.4842C20.9869 19.1789 21.6067 19.7552 22.3333 20.1667H1C1.72658 19.7552 2.34641 19.1789 2.80958 18.4842C3.27275 17.7894 3.56633 16.9956 3.66667 16.1667V12.1667C3.74608 10.4748 4.2844 8.83636 5.22393 7.42707C6.16346 6.01777 7.46879 4.8907 9 4.16667Z" stroke="white" stroke-width="1.5" stroke-linecap="round" stroke-linejoin="round"/>
</svg>
