<svg width="18" height="22" viewBox="0 0 18 22" fill="none" xmlns="http://www.w3.org/2000/svg">
    <path d="M6 9.75731C6 10.553 6.31607 11.316 6.87868 11.8786C7.44129 12.4412 8.20435 12.7573 9 12.7573C9.79565 12.7573 10.5587 12.4412 11.1213 11.8786C11.6839 11.316 12 10.553 12 9.75731C12 8.96166 11.6839 8.1986 11.1213 7.63599C10.5587 7.07338 9.79565 6.75731 9 6.75731C8.20435 6.75731 7.44129 7.07338 6.87868 7.63599C6.31607 8.1986 6 8.96166 6 9.75731Z" stroke="#7A7A7A" stroke-width="2" stroke-linecap="round" stroke-linejoin="round"/>
    <path d="M14.657 15.4143L10.414 19.6573C10.039 20.0319 9.53059 20.2424 9.0005 20.2424C8.47042 20.2424 7.96202 20.0319 7.587 19.6573L3.343 15.4143C2.22422 14.2955 1.46234 12.87 1.15369 11.3182C0.845043 9.76633 1.00349 8.15782 1.60901 6.69604C2.21452 5.23425 3.2399 3.98485 4.55548 3.10581C5.87107 2.22678 7.41777 1.7576 9 1.7576C10.5822 1.7576 12.1289 2.22678 13.4445 3.10581C14.7601 3.98485 15.7855 5.23425 16.391 6.69604C16.9965 8.15782 17.155 9.76633 16.8463 11.3182C16.5377 12.87 15.7758 14.2955 14.657 15.4143Z" stroke="#7A7A7A" stroke-width="2" stroke-linecap="round" stroke-linejoin="round"/>
</svg>
